<svg width="26" height="38" viewBox="0 0 26 38" fill="none" xmlns="http://www.w3.org/2000/svg">
<path d="M24.9112 4.24824C24.5869 3.7516 24.1131 3.73733 23.5732 3.72108C23.5121 3.71924 23.4501 3.71737 23.3873 3.71477C23.3395 3.71257 23.2868 3.71342 23.2317 3.71431C23.0128 3.71782 22.7566 3.72194 22.6276 3.53796C22.478 3.32467 22.4922 2.91248 22.5039 2.57219C22.5076 2.46467 22.5111 2.36426 22.509 2.27964C22.488 1.48916 22.4442 0.649471 22.139 0.368764C21.9089 0.158153 21.2205 0.18733 20.5857 0.214239C20.3799 0.222962 20.1797 0.231446 20.0026 0.231446H6.48969C6.21762 0.231446 5.93242 0.209292 5.6522 0.187525C5.10618 0.14511 4.57905 0.104162 4.20473 0.231446C3.66147 0.417074 3.62469 1.39251 3.59005 2.31103L3.58818 2.36045C3.5591 3.11872 3.37119 3.70384 2.74838 3.6449C2.02401 3.57746 1.30322 3.55619 0.975712 4.21178C0.588916 4.98746 0.668688 5.79942 0.811573 7.25377C0.831983 7.46151 0.853681 7.68237 0.875491 7.91809H25.1202C25.134 7.7458 25.1488 7.57571 25.1633 7.40837C25.2768 6.09991 25.3757 4.95986 24.9112 4.24824Z" fill="#8047F8"/>
<path fill-rule="evenodd" clip-rule="evenodd" d="M2.76359 9.36052C3.14225 14.4853 3.51677 19.616 3.89129 24.7467L3.89152 24.7498C4.09488 27.5357 4.29824 30.3215 4.50226 33.1064H5.27584C5.32856 33.5424 5.38888 34.0805 5.45247 34.648C5.58156 35.7998 5.72417 37.0722 5.84406 37.8542H5.92963C6.71759 37.5658 12.1649 35.2375 12.1673 25.9677C12.1663 25.9412 12.1672 25.9148 12.1699 25.8885H10.8242C10.759 25.8879 10.6959 25.8662 10.6444 25.8266C10.593 25.7871 10.5561 25.732 10.5395 25.6697C10.4084 25.3457 10.3026 25.0123 10.2232 24.6723C9.4315 25.1194 8.80278 25.8022 8.42668 26.6233C8.06966 25.7823 8.02293 24.8441 8.29466 23.9725C8.56638 23.101 9.13928 22.3515 9.91325 21.8551C9.92322 19.1502 10.936 16.5427 12.7599 14.5262L12.7883 14.5012C12.8413 14.4553 12.9092 14.4298 12.9796 14.4293C13.0203 14.4296 13.0605 14.4383 13.0976 14.4548C13.1352 14.4715 13.1689 14.4958 13.1963 14.5262C15.0415 16.5454 16.0489 19.178 16.0176 21.8989C16.8061 22.3815 17.3906 23.1304 17.6628 24.0067C17.935 24.883 17.8764 25.8271 17.4979 26.664C17.1238 25.8415 16.4946 25.1582 15.7014 24.7129C15.6529 25.0424 15.5637 25.3648 15.4357 25.6728C15.3914 25.8041 15.3028 25.8885 15.2143 25.8885H13.7791C13.7813 25.9043 13.7829 25.9201 13.7838 25.9359L13.7844 25.9396V25.9472C13.7849 25.9609 13.7849 25.9745 13.7844 25.9882C13.8041 35.5242 19.5957 37.6886 20.0839 37.8542H20.2509C20.2936 37.1031 20.4323 36.0667 20.5676 35.0563C20.6608 34.36 20.7524 33.6761 20.8097 33.1064H21.5923C21.8427 29.5985 22.1003 26.1004 22.358 22.6022L22.3581 22.6003L22.3582 22.5993C22.6877 18.1248 23.0172 13.6501 23.3318 9.15454H2.8137C2.75464 9.16609 2.75867 9.26269 2.76359 9.36052ZM12.9796 14.4293L12.9781 14.4293H12.9813L12.9796 14.4293Z" fill="#8047F8"/>
</svg>
